<svg xmlns="http://www.w3.org/2000/svg" xmlns:xlink="http://www.w3.org/1999/xlink" width="500" zoomAndPan="magnify" viewBox="0 0 375 374.999991" height="500" preserveAspectRatio="xMidYMid meet" version="1.0"><defs><g/><clipPath id="57e9cde182"><path d="M 112.5 88.652344 L 262.5 88.652344 L 262.5 212.390625 L 112.5 212.390625 Z M 112.5 88.652344 " clip-rule="nonzero"/></clipPath><clipPath id="ddbfb0b04e"><path d="M 225.191406 90.09375 L 187.5 127.101562 L 149.808594 90.09375 C 148.835938 89.109375 147.660156 88.628906 146.277344 88.652344 L 115.046875 88.652344 C 114.34375 88.652344 113.742188 88.898438 113.246094 89.394531 C 112.75 89.894531 112.5 90.492188 112.5 91.195312 L 112.5 137.359375 C 112.464844 138.800781 112.972656 140.015625 114.019531 141.007812 L 158.816406 185.003906 L 181.574219 162.664062 L 170.289062 166.539062 L 134.839844 131.699219 L 134.839844 105.101562 L 187.5 156.847656 L 239.058594 106.164062 L 239.058594 132.800781 L 172.378906 198.300781 L 185.714844 211.445312 C 186.214844 211.925781 186.808594 212.164062 187.5 212.164062 C 188.191406 212.164062 188.785156 211.925781 189.285156 211.445312 L 260.980469 141.007812 C 262.011719 140.007812 262.519531 138.792969 262.5 137.359375 L 262.5 91.195312 C 262.5 90.492188 262.25 89.894531 261.753906 89.394531 C 261.257812 88.898438 260.65625 88.652344 259.953125 88.652344 L 228.722656 88.652344 C 227.339844 88.628906 226.164062 89.109375 225.191406 90.09375 " clip-rule="evenodd"/></clipPath><linearGradient x1="20.382075" gradientTransform="matrix(0.379939, 0, 0, 0.379939, 112.500002, 88.650448)" y1="344.904127" x2="374.725842" gradientUnits="userSpaceOnUse" y2="-19.51886" id="4b6ebba599"><stop stop-opacity="1" stop-color="rgb(24.708557%, 44.709778%, 68.629456%)" offset="0"/><stop stop-opacity="1" stop-color="rgb(24.708557%, 44.709778%, 68.629456%)" offset="0.25"/><stop stop-opacity="1" stop-color="rgb(24.708557%, 44.709778%, 68.629456%)" offset="0.28125"/><stop stop-opacity="1" stop-color="rgb(24.658203%, 44.633484%, 68.522644%)" offset="0.296875"/><stop stop-opacity="1" stop-color="rgb(24.499512%, 44.393921%, 68.185425%)" offset="0.300781"/><stop stop-opacity="1" stop-color="rgb(24.389648%, 44.229126%, 67.955017%)" offset="0.304688"/><stop stop-opacity="1" stop-color="rgb(24.279785%, 44.064331%, 67.723083%)" offset="0.308594"/><stop stop-opacity="1" stop-color="rgb(24.169922%, 43.901062%, 67.492676%)" offset="0.3125"/><stop stop-opacity="1" stop-color="rgb(24.060059%, 43.736267%, 67.260742%)" offset="0.316406"/><stop stop-opacity="1" stop-color="rgb(23.951721%, 43.571472%, 67.030334%)" offset="0.320312"/><stop stop-opacity="1" stop-color="rgb(23.841858%, 43.406677%, 66.798401%)" offset="0.324219"/><stop stop-opacity="1" stop-color="rgb(23.731995%, 43.243408%, 66.567993%)" offset="0.328125"/><stop stop-opacity="1" stop-color="rgb(23.622131%, 43.078613%, 66.33606%)" offset="0.332031"/><stop stop-opacity="1" stop-color="rgb(23.512268%, 42.913818%, 66.105652%)" offset="0.335938"/><stop stop-opacity="1" stop-color="rgb(23.402405%, 42.749023%, 65.873718%)" offset="0.339844"/><stop stop-opacity="1" stop-color="rgb(23.294067%, 42.585754%, 65.643311%)" offset="0.34375"/><stop stop-opacity="1" stop-color="rgb(23.184204%, 42.420959%, 65.412903%)" offset="0.347656"/><stop stop-opacity="1" stop-color="rgb(23.074341%, 42.256165%, 65.182495%)" offset="0.351562"/><stop stop-opacity="1" stop-color="rgb(22.964478%, 42.09137%, 64.950562%)" offset="0.355469"/><stop stop-opacity="1" stop-color="rgb(22.854614%, 41.928101%, 64.720154%)" offset="0.359375"/><stop stop-opacity="1" stop-color="rgb(22.744751%, 41.763306%, 64.48822%)" offset="0.363281"/><stop stop-opacity="1" stop-color="rgb(22.636414%, 41.598511%, 64.257812%)" offset="0.367188"/><stop stop-opacity="1" stop-color="rgb(22.52655%, 41.433716%, 64.025879%)" offset="0.371094"/><stop stop-opacity="1" stop-color="rgb(22.416687%, 41.270447%, 63.795471%)" offset="0.375"/><stop stop-opacity="1" stop-color="rgb(22.306824%, 41.105652%, 63.563538%)" offset="0.378906"/><stop stop-opacity="1" stop-color="rgb(22.19696%, 40.940857%, 63.33313%)" offset="0.382812"/><stop stop-opacity="1" stop-color="rgb(22.087097%, 40.776062%, 63.101196%)" offset="0.386719"/><stop stop-opacity="1" stop-color="rgb(21.97876%, 40.612793%, 62.870789%)" offset="0.390625"/><stop stop-opacity="1" stop-color="rgb(21.868896%, 40.447998%, 62.638855%)" offset="0.394531"/><stop stop-opacity="1" stop-color="rgb(21.759033%, 40.283203%, 62.408447%)" offset="0.398438"/><stop stop-opacity="1" stop-color="rgb(21.64917%, 40.118408%, 62.176514%)" offset="0.402344"/><stop stop-opacity="1" stop-color="rgb(21.539307%, 39.955139%, 61.946106%)" offset="0.40625"/><stop stop-opacity="1" stop-color="rgb(21.429443%, 39.790344%, 61.714172%)" offset="0.410156"/><stop stop-opacity="1" stop-color="rgb(21.321106%, 39.625549%, 61.483765%)" offset="0.414062"/><stop stop-opacity="1" stop-color="rgb(21.211243%, 39.460754%, 61.251831%)" offset="0.417969"/><stop stop-opacity="1" stop-color="rgb(21.101379%, 39.297485%, 61.021423%)" offset="0.421875"/><stop stop-opacity="1" stop-color="rgb(20.991516%, 39.13269%, 60.78949%)" offset="0.425781"/><stop stop-opacity="1" stop-color="rgb(20.881653%, 38.967896%, 60.559082%)" offset="0.429687"/><stop stop-opacity="1" stop-color="rgb(20.77179%, 38.803101%, 60.327148%)" offset="0.433594"/><stop stop-opacity="1" stop-color="rgb(20.663452%, 38.639832%, 60.096741%)" offset="0.4375"/><stop stop-opacity="1" stop-color="rgb(20.553589%, 38.475037%, 59.864807%)" offset="0.441406"/><stop stop-opacity="1" stop-color="rgb(20.443726%, 38.310242%, 59.634399%)" offset="0.445312"/><stop stop-opacity="1" stop-color="rgb(20.333862%, 38.145447%, 59.402466%)" offset="0.449219"/><stop stop-opacity="1" stop-color="rgb(20.223999%, 37.982178%, 59.172058%)" offset="0.453125"/><stop stop-opacity="1" stop-color="rgb(20.114136%, 37.817383%, 58.940125%)" offset="0.457031"/><stop stop-opacity="1" stop-color="rgb(20.005798%, 37.652588%, 58.709717%)" offset="0.460938"/><stop stop-opacity="1" stop-color="rgb(19.895935%, 37.487793%, 58.477783%)" offset="0.464844"/><stop stop-opacity="1" stop-color="rgb(19.786072%, 37.324524%, 58.247375%)" offset="0.46875"/><stop stop-opacity="1" stop-color="rgb(19.676208%, 37.159729%, 58.015442%)" offset="0.472656"/><stop stop-opacity="1" stop-color="rgb(19.566345%, 36.994934%, 57.785034%)" offset="0.476562"/><stop stop-opacity="1" stop-color="rgb(19.456482%, 36.830139%, 57.553101%)" offset="0.480469"/><stop stop-opacity="1" stop-color="rgb(19.348145%, 36.66687%, 57.322693%)" offset="0.484375"/><stop stop-opacity="1" stop-color="rgb(19.238281%, 36.502075%, 57.092285%)" offset="0.488281"/><stop stop-opacity="1" stop-color="rgb(19.128418%, 36.33728%, 56.861877%)" offset="0.492187"/><stop stop-opacity="1" stop-color="rgb(19.018555%, 36.172485%, 56.629944%)" offset="0.496094"/><stop stop-opacity="1" stop-color="rgb(18.908691%, 36.009216%, 56.399536%)" offset="0.5"/><stop stop-opacity="1" stop-color="rgb(18.798828%, 35.844421%, 56.167603%)" offset="0.503906"/><stop stop-opacity="1" stop-color="rgb(18.690491%, 35.679626%, 55.937195%)" offset="0.507812"/><stop stop-opacity="1" stop-color="rgb(18.580627%, 35.514832%, 55.705261%)" offset="0.511719"/><stop stop-opacity="1" stop-color="rgb(18.470764%, 35.351562%, 55.474854%)" offset="0.515625"/><stop stop-opacity="1" stop-color="rgb(18.360901%, 35.186768%, 55.24292%)" offset="0.519531"/><stop stop-opacity="1" stop-color="rgb(18.251038%, 35.021973%, 55.012512%)" offset="0.523438"/><stop stop-opacity="1" stop-color="rgb(18.141174%, 34.857178%, 54.780579%)" offset="0.527344"/><stop stop-opacity="1" stop-color="rgb(18.032837%, 34.693909%, 54.550171%)" offset="0.53125"/><stop stop-opacity="1" stop-color="rgb(17.922974%, 34.529114%, 54.318237%)" offset="0.535156"/><stop stop-opacity="1" stop-color="rgb(17.81311%, 34.364319%, 54.08783%)" offset="0.539062"/><stop stop-opacity="1" stop-color="rgb(17.703247%, 34.199524%, 53.855896%)" offset="0.542969"/><stop stop-opacity="1" stop-color="rgb(17.593384%, 34.036255%, 53.625488%)" offset="0.546875"/><stop stop-opacity="1" stop-color="rgb(17.483521%, 33.87146%, 53.393555%)" offset="0.550781"/><stop stop-opacity="1" stop-color="rgb(17.375183%, 33.706665%, 53.163147%)" offset="0.554688"/><stop stop-opacity="1" stop-color="rgb(17.26532%, 33.54187%, 52.931213%)" offset="0.558594"/><stop stop-opacity="1" stop-color="rgb(17.155457%, 33.378601%, 52.700806%)" offset="0.5625"/><stop stop-opacity="1" stop-color="rgb(17.045593%, 33.213806%, 52.468872%)" offset="0.566406"/><stop stop-opacity="1" stop-color="rgb(16.93573%, 33.049011%, 52.238464%)" offset="0.570312"/><stop stop-opacity="1" stop-color="rgb(16.825867%, 32.884216%, 52.006531%)" offset="0.574219"/><stop stop-opacity="1" stop-color="rgb(16.717529%, 32.720947%, 51.776123%)" offset="0.578125"/><stop stop-opacity="1" stop-color="rgb(16.607666%, 32.556152%, 51.544189%)" offset="0.582031"/><stop stop-opacity="1" stop-color="rgb(16.497803%, 32.391357%, 51.313782%)" offset="0.585937"/><stop stop-opacity="1" stop-color="rgb(16.387939%, 32.226562%, 51.081848%)" offset="0.589844"/><stop stop-opacity="1" stop-color="rgb(16.278076%, 32.063293%, 50.85144%)" offset="0.59375"/><stop stop-opacity="1" stop-color="rgb(16.168213%, 31.898499%, 50.619507%)" offset="0.597656"/><stop stop-opacity="1" stop-color="rgb(16.059875%, 31.733704%, 50.389099%)" offset="0.601562"/><stop stop-opacity="1" stop-color="rgb(15.950012%, 31.568909%, 50.157166%)" offset="0.605469"/><stop stop-opacity="1" stop-color="rgb(15.840149%, 31.40564%, 49.926758%)" offset="0.609375"/><stop stop-opacity="1" stop-color="rgb(15.730286%, 31.240845%, 49.694824%)" offset="0.613281"/><stop stop-opacity="1" stop-color="rgb(15.620422%, 31.07605%, 49.464417%)" offset="0.617188"/><stop stop-opacity="1" stop-color="rgb(15.510559%, 30.911255%, 49.232483%)" offset="0.621094"/><stop stop-opacity="1" stop-color="rgb(15.402222%, 30.747986%, 49.002075%)" offset="0.625"/><stop stop-opacity="1" stop-color="rgb(15.292358%, 30.583191%, 48.771667%)" offset="0.628906"/><stop stop-opacity="1" stop-color="rgb(15.182495%, 30.418396%, 48.54126%)" offset="0.632812"/><stop stop-opacity="1" stop-color="rgb(15.072632%, 30.253601%, 48.309326%)" offset="0.636719"/><stop stop-opacity="1" stop-color="rgb(14.962769%, 30.090332%, 48.078918%)" offset="0.640625"/><stop stop-opacity="1" stop-color="rgb(14.852905%, 29.925537%, 47.846985%)" offset="0.644531"/><stop stop-opacity="1" stop-color="rgb(14.744568%, 29.760742%, 47.616577%)" offset="0.648437"/><stop stop-opacity="1" stop-color="rgb(14.634705%, 29.595947%, 47.384644%)" offset="0.652344"/><stop stop-opacity="1" stop-color="rgb(14.524841%, 29.432678%, 47.154236%)" offset="0.65625"/><stop stop-opacity="1" stop-color="rgb(14.414978%, 29.267883%, 46.922302%)" offset="0.660156"/><stop stop-opacity="1" stop-color="rgb(14.305115%, 29.103088%, 46.691895%)" offset="0.664062"/><stop stop-opacity="1" stop-color="rgb(14.195251%, 28.938293%, 46.459961%)" offset="0.667969"/><stop stop-opacity="1" stop-color="rgb(14.086914%, 28.775024%, 46.229553%)" offset="0.671875"/><stop stop-opacity="1" stop-color="rgb(13.977051%, 28.610229%, 45.99762%)" offset="0.675781"/><stop stop-opacity="1" stop-color="rgb(13.867188%, 28.445435%, 45.767212%)" offset="0.679688"/><stop stop-opacity="1" stop-color="rgb(13.757324%, 28.28064%, 45.535278%)" offset="0.683594"/><stop stop-opacity="1" stop-color="rgb(13.647461%, 28.117371%, 45.304871%)" offset="0.6875"/><stop stop-opacity="1" stop-color="rgb(13.537598%, 27.952576%, 45.072937%)" offset="0.691406"/><stop stop-opacity="1" stop-color="rgb(13.42926%, 27.787781%, 44.842529%)" offset="0.695312"/><stop stop-opacity="1" stop-color="rgb(13.319397%, 27.622986%, 44.610596%)" offset="0.699219"/><stop stop-opacity="1" stop-color="rgb(13.209534%, 27.459717%, 44.380188%)" offset="0.703125"/><stop stop-opacity="1" stop-color="rgb(13.09967%, 27.294922%, 44.148254%)" offset="0.707031"/><stop stop-opacity="1" stop-color="rgb(12.989807%, 27.130127%, 43.917847%)" offset="0.710937"/><stop stop-opacity="1" stop-color="rgb(12.879944%, 26.965332%, 43.685913%)" offset="0.714844"/><stop stop-opacity="1" stop-color="rgb(12.771606%, 26.802063%, 43.455505%)" offset="0.71875"/><stop stop-opacity="1" stop-color="rgb(12.661743%, 26.637268%, 43.223572%)" offset="0.722656"/><stop stop-opacity="1" stop-color="rgb(12.55188%, 26.472473%, 42.993164%)" offset="0.726562"/><stop stop-opacity="1" stop-color="rgb(12.442017%, 26.307678%, 42.76123%)" offset="0.730469"/><stop stop-opacity="1" stop-color="rgb(12.332153%, 26.144409%, 42.530823%)" offset="0.734375"/><stop stop-opacity="1" stop-color="rgb(12.22229%, 25.979614%, 42.298889%)" offset="0.738281"/><stop stop-opacity="1" stop-color="rgb(12.113953%, 25.814819%, 42.068481%)" offset="0.742188"/><stop stop-opacity="1" stop-color="rgb(12.004089%, 25.650024%, 41.836548%)" offset="0.746094"/><stop stop-opacity="1" stop-color="rgb(11.894226%, 25.486755%, 41.60614%)" offset="0.75"/><stop stop-opacity="1" stop-color="rgb(11.784363%, 25.32196%, 41.374207%)" offset="0.753906"/><stop stop-opacity="1" stop-color="rgb(11.6745%, 25.157166%, 41.143799%)" offset="0.757812"/><stop stop-opacity="1" stop-color="rgb(11.564636%, 24.992371%, 40.911865%)" offset="0.761719"/><stop stop-opacity="1" stop-color="rgb(11.456299%, 24.829102%, 40.681458%)" offset="0.765625"/><stop stop-opacity="1" stop-color="rgb(11.346436%, 24.664307%, 40.45105%)" offset="0.769531"/><stop stop-opacity="1" stop-color="rgb(11.236572%, 24.499512%, 40.220642%)" offset="0.773437"/><stop stop-opacity="1" stop-color="rgb(11.126709%, 24.334717%, 39.988708%)" offset="0.777344"/><stop stop-opacity="1" stop-color="rgb(11.016846%, 24.171448%, 39.758301%)" offset="0.78125"/><stop stop-opacity="1" stop-color="rgb(10.906982%, 24.006653%, 39.526367%)" offset="0.785156"/><stop stop-opacity="1" stop-color="rgb(10.798645%, 23.841858%, 39.295959%)" offset="0.789062"/><stop stop-opacity="1" stop-color="rgb(10.688782%, 23.677063%, 39.064026%)" offset="0.792969"/><stop stop-opacity="1" stop-color="rgb(10.578918%, 23.513794%, 38.833618%)" offset="0.796875"/><stop stop-opacity="1" stop-color="rgb(10.469055%, 23.348999%, 38.601685%)" offset="0.800781"/><stop stop-opacity="1" stop-color="rgb(10.359192%, 23.184204%, 38.371277%)" offset="0.804688"/><stop stop-opacity="1" stop-color="rgb(10.249329%, 23.019409%, 38.139343%)" offset="0.808594"/><stop stop-opacity="1" stop-color="rgb(10.140991%, 22.85614%, 37.908936%)" offset="0.8125"/><stop stop-opacity="1" stop-color="rgb(10.031128%, 22.691345%, 37.677002%)" offset="0.816406"/><stop stop-opacity="1" stop-color="rgb(9.921265%, 22.52655%, 37.446594%)" offset="0.820312"/><stop stop-opacity="1" stop-color="rgb(9.811401%, 22.361755%, 37.214661%)" offset="0.824219"/><stop stop-opacity="1" stop-color="rgb(9.701538%, 22.198486%, 36.984253%)" offset="0.828125"/><stop stop-opacity="1" stop-color="rgb(9.591675%, 22.033691%, 36.752319%)" offset="0.832031"/><stop stop-opacity="1" stop-color="rgb(9.483337%, 21.868896%, 36.521912%)" offset="0.835937"/><stop stop-opacity="1" stop-color="rgb(9.373474%, 21.704102%, 36.289978%)" offset="0.839844"/><stop stop-opacity="1" stop-color="rgb(9.263611%, 21.540833%, 36.05957%)" offset="0.84375"/><stop stop-opacity="1" stop-color="rgb(9.153748%, 21.376038%, 35.827637%)" offset="0.847656"/><stop stop-opacity="1" stop-color="rgb(9.043884%, 21.211243%, 35.597229%)" offset="0.851562"/><stop stop-opacity="1" stop-color="rgb(8.934021%, 21.046448%, 35.365295%)" offset="0.855469"/><stop stop-opacity="1" stop-color="rgb(8.825684%, 20.883179%, 35.134888%)" offset="0.859375"/><stop stop-opacity="1" stop-color="rgb(8.71582%, 20.718384%, 34.902954%)" offset="0.863281"/><stop stop-opacity="1" stop-color="rgb(8.605957%, 20.553589%, 34.672546%)" offset="0.867188"/><stop stop-opacity="1" stop-color="rgb(8.496094%, 20.388794%, 34.440613%)" offset="0.871094"/><stop stop-opacity="1" stop-color="rgb(8.38623%, 20.225525%, 34.210205%)" offset="0.875"/><stop stop-opacity="1" stop-color="rgb(8.276367%, 20.06073%, 33.978271%)" offset="0.878906"/><stop stop-opacity="1" stop-color="rgb(8.16803%, 19.895935%, 33.747864%)" offset="0.882812"/><stop stop-opacity="1" stop-color="rgb(8.058167%, 19.73114%, 33.51593%)" offset="0.886719"/><stop stop-opacity="1" stop-color="rgb(7.948303%, 19.567871%, 33.285522%)" offset="0.890625"/><stop stop-opacity="1" stop-color="rgb(7.83844%, 19.403076%, 33.053589%)" offset="0.894531"/><stop stop-opacity="1" stop-color="rgb(7.728577%, 19.238281%, 32.823181%)" offset="0.898437"/><stop stop-opacity="1" stop-color="rgb(7.618713%, 19.073486%, 32.591248%)" offset="0.902344"/><stop stop-opacity="1" stop-color="rgb(7.510376%, 18.910217%, 32.36084%)" offset="0.90625"/><stop stop-opacity="1" stop-color="rgb(7.400513%, 18.745422%, 32.130432%)" offset="0.910156"/><stop stop-opacity="1" stop-color="rgb(7.290649%, 18.580627%, 31.900024%)" offset="0.914062"/><stop stop-opacity="1" stop-color="rgb(7.180786%, 18.415833%, 31.668091%)" offset="0.917969"/><stop stop-opacity="1" stop-color="rgb(7.070923%, 18.252563%, 31.437683%)" offset="0.921875"/><stop stop-opacity="1" stop-color="rgb(6.96106%, 18.087769%, 31.20575%)" offset="0.925781"/><stop stop-opacity="1" stop-color="rgb(6.852722%, 17.922974%, 30.975342%)" offset="0.929688"/><stop stop-opacity="1" stop-color="rgb(6.761169%, 17.785645%, 30.781555%)" offset="0.9375"/><stop stop-opacity="1" stop-color="rgb(6.669617%, 17.649841%, 30.589294%)" offset="1"/></linearGradient></defs><rect x="-37.5" width="450" fill="#ffffff" y="-37.499999" height="449.999989" fill-opacity="1"/><rect x="-37.5" width="450" fill="#ffffff" y="-37.499999" height="449.999989" fill-opacity="1"/><g clip-path="url(#57e9cde182)"><g clip-path="url(#ddbfb0b04e)"><path fill="url(#4b6ebba599)" d="M 112.5 88.652344 L 112.5 212.164062 L 262.5 212.164062 L 262.5 88.652344 Z M 112.5 88.652344 " fill-rule="nonzero"/></g></g><g fill="#112d4e" fill-opacity="1"><g transform="translate(95.460936, 263.721297)"><g><path d="M 26.359375 -27.125 L 17.484375 0 L 8.84375 0 L 0 -27.125 L 8.234375 -27.125 L 11.9375 -13.375 C 12.070312 -12.851562 12.226562 -12.1875 12.40625 -11.375 C 12.582031 -10.570312 12.75 -9.765625 12.90625 -8.953125 C 13.0625 -8.148438 13.15625 -7.5 13.1875 -7 C 13.238281 -7.5 13.332031 -8.144531 13.46875 -8.9375 C 13.601562 -9.726562 13.753906 -10.523438 13.921875 -11.328125 C 14.085938 -12.128906 14.25 -12.785156 14.40625 -13.296875 L 18.171875 -27.125 Z M 26.359375 -27.125 "/></g></g></g><g fill="#112d4e" fill-opacity="1"><g transform="translate(121.821724, 263.721297)"><g><path d="M 12.625 -17.078125 L 17.296875 -27.125 L 25.234375 -27.125 L 16.3125 -10.59375 L 16.3125 0 L 8.921875 0 L 8.921875 -10.375 L 0 -27.125 L 7.984375 -27.125 Z M 12.625 -17.078125 "/></g></g></g><g fill="#112d4e" fill-opacity="1"><g transform="translate(147.050909, 263.721297)"><g><path d="M 19.578125 0 L 18.234375 -5.078125 L 9.421875 -5.078125 L 8.046875 0 L 0 0 L 8.84375 -27.234375 L 18.625 -27.234375 L 27.59375 0 Z M 16.71875 -11.09375 L 15.546875 -15.546875 C 15.421875 -16.023438 15.238281 -16.710938 15 -17.609375 C 14.769531 -18.515625 14.539062 -19.445312 14.3125 -20.40625 C 14.082031 -21.363281 13.90625 -22.148438 13.78125 -22.765625 C 13.675781 -22.148438 13.519531 -21.382812 13.3125 -20.46875 C 13.101562 -19.5625 12.890625 -18.660156 12.671875 -17.765625 C 12.460938 -16.878906 12.273438 -16.140625 12.109375 -15.546875 L 10.953125 -11.09375 Z M 16.71875 -11.09375 "/></g></g></g><g fill="#112d4e" fill-opacity="1"><g transform="translate(174.636055, 263.721297)"><g><path d="M 12.328125 -27.125 C 15.765625 -27.125 18.335938 -26.375 20.046875 -24.875 C 21.765625 -23.382812 22.625 -21.257812 22.625 -18.5 C 22.625 -17.257812 22.445312 -16.070312 22.09375 -14.9375 C 21.738281 -13.800781 21.160156 -12.785156 20.359375 -11.890625 C 19.566406 -11.003906 18.507812 -10.300781 17.1875 -9.78125 C 15.875 -9.257812 14.253906 -9 12.328125 -9 L 10.265625 -9 L 10.265625 0 L 2.9375 0 L 2.9375 -27.125 Z M 12.15625 -21.203125 L 10.265625 -21.203125 L 10.265625 -14.96875 L 11.703125 -14.96875 C 12.335938 -14.96875 12.925781 -15.078125 13.46875 -15.296875 C 14.007812 -15.515625 14.441406 -15.867188 14.765625 -16.359375 C 15.097656 -16.847656 15.265625 -17.5 15.265625 -18.3125 C 15.265625 -19.164062 15.007812 -19.859375 14.5 -20.390625 C 14 -20.929688 13.21875 -21.203125 12.15625 -21.203125 Z M 12.15625 -21.203125 "/></g></g></g><g fill="#112d4e" fill-opacity="1"><g transform="translate(198.640883, 263.721297)"><g><path d="M 19.578125 0 L 18.234375 -5.078125 L 9.421875 -5.078125 L 8.046875 0 L 0 0 L 8.84375 -27.234375 L 18.625 -27.234375 L 27.59375 0 Z M 16.71875 -11.09375 L 15.546875 -15.546875 C 15.421875 -16.023438 15.238281 -16.710938 15 -17.609375 C 14.769531 -18.515625 14.539062 -19.445312 14.3125 -20.40625 C 14.082031 -21.363281 13.90625 -22.148438 13.78125 -22.765625 C 13.675781 -22.148438 13.519531 -21.382812 13.3125 -20.46875 C 13.101562 -19.5625 12.890625 -18.660156 12.671875 -17.765625 C 12.460938 -16.878906 12.273438 -16.140625 12.109375 -15.546875 L 10.953125 -11.09375 Z M 16.71875 -11.09375 "/></g></g></g><g fill="#112d4e" fill-opacity="1"><g transform="translate(226.226029, 263.721297)"><g><path d="M 19.578125 0 L 18.234375 -5.078125 L 9.421875 -5.078125 L 8.046875 0 L 0 0 L 8.84375 -27.234375 L 18.625 -27.234375 L 27.59375 0 Z M 16.71875 -11.09375 L 15.546875 -15.546875 C 15.421875 -16.023438 15.238281 -16.710938 15 -17.609375 C 14.769531 -18.515625 14.539062 -19.445312 14.3125 -20.40625 C 14.082031 -21.363281 13.90625 -22.148438 13.78125 -22.765625 C 13.675781 -22.148438 13.519531 -21.382812 13.3125 -20.46875 C 13.101562 -19.5625 12.890625 -18.660156 12.671875 -17.765625 C 12.460938 -16.878906 12.273438 -16.140625 12.109375 -15.546875 L 10.953125 -11.09375 Z M 16.71875 -11.09375 "/></g></g></g><g fill="#112d4e" fill-opacity="1"><g transform="translate(253.811175, 263.721297)"><g><path d="M 11.8125 -27.125 C 14.28125 -27.125 16.328125 -26.820312 17.953125 -26.21875 C 19.585938 -25.625 20.816406 -24.734375 21.640625 -23.546875 C 22.460938 -22.359375 22.875 -20.878906 22.875 -19.109375 C 22.875 -18.003906 22.6875 -17 22.3125 -16.09375 C 21.945312 -15.195312 21.421875 -14.394531 20.734375 -13.6875 C 20.046875 -12.976562 19.226562 -12.351562 18.28125 -11.8125 L 26.1875 0 L 17.875 0 L 12.109375 -9.875 L 10.265625 -9.875 L 10.265625 0 L 2.9375 0 L 2.9375 -27.125 Z M 11.703125 -21.578125 L 10.265625 -21.578125 L 10.265625 -15.375 L 11.640625 -15.375 C 12.765625 -15.375 13.679688 -15.617188 14.390625 -16.109375 C 15.109375 -16.609375 15.46875 -17.5 15.46875 -18.78125 C 15.46875 -19.65625 15.171875 -20.335938 14.578125 -20.828125 C 13.984375 -21.328125 13.023438 -21.578125 11.703125 -21.578125 Z M 11.703125 -21.578125 "/></g></g></g><g fill="#112d4e" fill-opacity="1"><g transform="translate(143.097614, 286.209795)"><g><path d="M 1.421875 -10.421875 L 4.375 -10.421875 C 5.675781 -10.421875 6.65625 -10.226562 7.3125 -9.84375 C 7.96875 -9.457031 8.296875 -8.796875 8.296875 -7.859375 C 8.296875 -7.453125 8.21875 -7.085938 8.0625 -6.765625 C 7.914062 -6.441406 7.691406 -6.175781 7.390625 -5.96875 C 7.097656 -5.757812 6.738281 -5.613281 6.3125 -5.53125 L 6.3125 -5.46875 C 6.757812 -5.394531 7.160156 -5.257812 7.515625 -5.0625 C 7.867188 -4.875 8.144531 -4.609375 8.34375 -4.265625 C 8.539062 -3.929688 8.640625 -3.5 8.640625 -2.96875 C 8.640625 -2.320312 8.488281 -1.773438 8.1875 -1.328125 C 7.894531 -0.890625 7.476562 -0.554688 6.9375 -0.328125 C 6.394531 -0.109375 5.753906 0 5.015625 0 L 1.421875 0 Z M 2.640625 -5.953125 L 4.640625 -5.953125 C 5.546875 -5.953125 6.171875 -6.101562 6.515625 -6.40625 C 6.867188 -6.707031 7.046875 -7.144531 7.046875 -7.71875 C 7.046875 -8.3125 6.835938 -8.738281 6.421875 -9 C 6.003906 -9.257812 5.34375 -9.390625 4.4375 -9.390625 L 2.640625 -9.390625 Z M 2.640625 -4.9375 L 2.640625 -1.03125 L 4.8125 -1.03125 C 5.738281 -1.03125 6.394531 -1.210938 6.78125 -1.578125 C 7.164062 -1.941406 7.359375 -2.429688 7.359375 -3.046875 C 7.359375 -3.441406 7.269531 -3.78125 7.09375 -4.0625 C 6.914062 -4.34375 6.632812 -4.554688 6.25 -4.703125 C 5.863281 -4.859375 5.347656 -4.9375 4.703125 -4.9375 Z M 2.640625 -4.9375 "/></g></g></g><g fill="#112d4e" fill-opacity="1"><g transform="translate(159.384753, 286.209795)"><g><path d="M 7.96875 0 L 6.6875 -3.3125 L 2.5 -3.3125 L 1.234375 0 L 0 0 L 4.078125 -10.46875 L 5.171875 -10.46875 L 9.21875 0 Z M 6.3125 -4.390625 L 5.09375 -7.671875 C 5.070312 -7.753906 5.023438 -7.894531 4.953125 -8.09375 C 4.890625 -8.289062 4.828125 -8.492188 4.765625 -8.703125 C 4.703125 -8.910156 4.644531 -9.078125 4.59375 -9.203125 C 4.550781 -9.015625 4.5 -8.820312 4.4375 -8.625 C 4.382812 -8.4375 4.332031 -8.257812 4.28125 -8.09375 C 4.226562 -7.925781 4.1875 -7.785156 4.15625 -7.671875 L 2.90625 -4.390625 Z M 6.3125 -4.390625 "/></g></g></g><g fill="#112d4e" fill-opacity="1"><g transform="translate(175.472261, 286.209795)"><g><path d="M 7.796875 0 L 0.5625 0 L 0.5625 -0.90625 L 6.171875 -9.34375 L 0.75 -9.34375 L 0.75 -10.421875 L 7.640625 -10.421875 L 7.640625 -9.515625 L 2.03125 -1.078125 L 7.796875 -1.078125 Z M 7.796875 0 "/></g></g></g><g fill="#112d4e" fill-opacity="1"><g transform="translate(190.68282, 286.209795)"><g><path d="M 7.96875 0 L 6.6875 -3.3125 L 2.5 -3.3125 L 1.234375 0 L 0 0 L 4.078125 -10.46875 L 5.171875 -10.46875 L 9.21875 0 Z M 6.3125 -4.390625 L 5.09375 -7.671875 C 5.070312 -7.753906 5.023438 -7.894531 4.953125 -8.09375 C 4.890625 -8.289062 4.828125 -8.492188 4.765625 -8.703125 C 4.703125 -8.910156 4.644531 -9.078125 4.59375 -9.203125 C 4.550781 -9.015625 4.5 -8.820312 4.4375 -8.625 C 4.382812 -8.4375 4.332031 -8.257812 4.28125 -8.09375 C 4.226562 -7.925781 4.1875 -7.785156 4.15625 -7.671875 L 2.90625 -4.390625 Z M 6.3125 -4.390625 "/></g></g></g><g fill="#112d4e" fill-opacity="1"><g transform="translate(206.770328, 286.209795)"><g><path d="M 7.96875 0 L 6.6875 -3.3125 L 2.5 -3.3125 L 1.234375 0 L 0 0 L 4.078125 -10.46875 L 5.171875 -10.46875 L 9.21875 0 Z M 6.3125 -4.390625 L 5.09375 -7.671875 C 5.070312 -7.753906 5.023438 -7.894531 4.953125 -8.09375 C 4.890625 -8.289062 4.828125 -8.492188 4.765625 -8.703125 C 4.703125 -8.910156 4.644531 -9.078125 4.59375 -9.203125 C 4.550781 -9.015625 4.5 -8.820312 4.4375 -8.625 C 4.382812 -8.4375 4.332031 -8.257812 4.28125 -8.09375 C 4.226562 -7.925781 4.1875 -7.785156 4.15625 -7.671875 L 2.90625 -4.390625 Z M 6.3125 -4.390625 "/></g></g></g><g fill="#112d4e" fill-opacity="1"><g transform="translate(222.857836, 286.209795)"><g><path d="M 4.25 -10.421875 C 5.101562 -10.421875 5.804688 -10.316406 6.359375 -10.109375 C 6.921875 -9.898438 7.335938 -9.578125 7.609375 -9.140625 C 7.890625 -8.710938 8.03125 -8.160156 8.03125 -7.484375 C 8.03125 -6.929688 7.929688 -6.472656 7.734375 -6.109375 C 7.535156 -5.742188 7.273438 -5.445312 6.953125 -5.21875 C 6.628906 -4.988281 6.28125 -4.8125 5.90625 -4.6875 L 8.78125 0 L 7.359375 0 L 4.8125 -4.34375 L 2.640625 -4.34375 L 2.640625 0 L 1.421875 0 L 1.421875 -10.421875 Z M 4.171875 -9.375 L 2.640625 -9.375 L 2.640625 -5.375 L 4.296875 -5.375 C 5.148438 -5.375 5.773438 -5.546875 6.171875 -5.890625 C 6.578125 -6.242188 6.78125 -6.757812 6.78125 -7.4375 C 6.78125 -8.144531 6.566406 -8.644531 6.140625 -8.9375 C 5.710938 -9.226562 5.054688 -9.375 4.171875 -9.375 Z M 4.171875 -9.375 "/></g></g></g></svg>